<?xml version="1.0" standalone="no"?>
<!DOCTYPE svg PUBLIC "-//W3C//DTD SVG 20010904//EN"
 "http://www.w3.org/TR/2001/REC-SVG-20010904/DTD/svg10.dtd">
<svg version="1.0" xmlns="http://www.w3.org/2000/svg"
 width="900.000000pt" height="900.000000pt" viewBox="0 0 900.000000 900.000000"
 preserveAspectRatio="xMidYMid meet">
<metadata>
Created by potrace 1.10, written by Peter Selinger 2001-2011
</metadata>
<g transform="translate(0.000000,900.000000) scale(0.100000,-0.100000)"
fill="#ffffff" stroke="none">
<path d="M2709 6144 c-30 -20 -78 -62 -107 -95 -30 -32 -60 -59 -68 -59 -7 0
-28 9 -46 20 -18 11 -47 20 -64 20 -45 0 -131 -93 -169 -182 -15 -38 -34 -68
-42 -68 -8 0 -31 11 -51 25 -54 37 -90 33 -146 -16 -26 -23 -53 -53 -61 -68
-16 -32 -37 -140 -37 -196 0 -22 -6 -49 -14 -59 -13 -18 -16 -18 -73 17 -70
44 -117 48 -161 15 -40 -29 -74 -83 -88 -140 -24 -96 -8 -287 33 -385 16 -38
20 -73 7 -73 -4 0 -32 24 -63 53 -123 117 -194 162 -240 152 -33 -7 -94 -67
-120 -117 -40 -78 -18 -238 62 -453 25 -67 34 -115 22 -115 -6 0 -30 7 -53 15
-75 27 -115 20 -165 -26 -58 -53 -71 -94 -55 -168 14 -67 51 -181 76 -236 40
-87 144 -224 253 -335 62 -63 117 -125 122 -138 5 -14 5 -44 -1 -75 -44 -235
-57 -356 -46 -430 12 -81 106 -176 178 -181 23 -2 43 8 78 35 69 54 98 110
109 210 38 320 34 313 179 324 187 14 426 92 567 186 107 71 175 154 175 214
0 33 -87 128 -141 152 -22 10 -38 24 -36 32 1 8 43 37 93 65 178 100 282 224
260 311 -7 26 -133 135 -158 135 -17 0 -38 20 -38 37 0 6 21 24 48 39 93 54
202 187 202 246 0 23 -21 63 -44 83 -30 27 -54 68 -49 83 4 9 33 41 65 71 33
29 72 76 88 104 37 65 29 87 -62 172 l-70 65 28 31 c16 17 40 41 53 53 35 32
74 122 66 155 -3 16 -29 54 -57 85 -55 62 -57 77 -24 161 8 22 15 71 16 108
l0 68 -54 55 c-69 68 -99 71 -177 18z m135 -50 c15 -38 -9 -150 -45 -214 -5
-8 -13 -24 -18 -35 -5 -11 -39 -50 -75 -88 -36 -37 -71 -79 -78 -92 -7 -13
-26 -43 -42 -65 -45 -63 -22 -70 55 -18 118 79 228 120 268 99 24 -13 27 -34
9 -57 -32 -39 -104 -107 -122 -115 -12 -5 -28 -13 -36 -18 -56 -32 -97 -43
-175 -49 l-89 -7 -28 -50 c-16 -27 -36 -63 -44 -80 -8 -16 -22 -42 -32 -56 -9
-15 -30 -50 -47 -78 -16 -28 -33 -51 -37 -51 -5 0 -8 -7 -8 -15 0 -23 28 -18
74 13 22 15 48 31 56 35 8 4 35 18 59 32 24 14 50 25 56 25 7 0 18 7 25 15 7
8 21 15 32 15 10 0 29 7 42 15 16 10 62 17 147 22 106 5 126 4 137 -10 10 -12
11 -21 3 -36 -13 -24 -113 -100 -161 -122 -86 -40 -112 -49 -136 -49 -14 0
-50 -7 -79 -15 -31 -9 -101 -17 -171 -18 l-118 -2 -15 -30 c-8 -17 -18 -37
-22 -45 -5 -8 -20 -37 -34 -65 -15 -27 -35 -63 -45 -80 -11 -16 -24 -39 -30
-50 -5 -11 -15 -27 -22 -36 -6 -9 -8 -24 -4 -34 6 -16 8 -17 24 -1 10 9 24 16
30 16 7 0 12 4 12 9 0 5 12 14 28 20 35 15 71 36 85 50 6 6 19 11 28 11 9 0
22 7 29 15 7 8 22 15 34 15 11 0 30 7 40 15 11 8 30 15 43 15 13 0 40 7 60 15
50 21 321 24 334 4 15 -24 10 -34 -35 -81 -89 -91 -212 -150 -366 -177 -25 -5
-58 -14 -75 -20 -18 -8 -91 -14 -180 -15 l-150 -2 -3 -29 c-2 -16 -10 -38 -18
-49 -8 -11 -14 -28 -14 -37 0 -10 -6 -30 -14 -46 -8 -15 -21 -44 -29 -63 -9
-19 -29 -64 -46 -100 -17 -36 -31 -71 -31 -78 0 -21 31 -13 70 18 21 17 40 30
43 30 3 0 34 19 69 43 91 60 99 65 138 83 126 61 237 78 410 63 127 -11 190
-28 190 -52 0 -14 -75 -89 -135 -133 -68 -51 -204 -110 -287 -124 -26 -5 -57
-14 -70 -21 -16 -9 -85 -13 -239 -13 l-216 -1 -17 -65 c-24 -92 -42 -154 -67
-237 -20 -69 -21 -103 -1 -103 5 0 25 13 45 28 61 49 229 125 315 143 23 5 51
13 61 19 11 5 97 10 193 11 148 1 178 -1 211 -17 20 -10 37 -22 37 -28 0 -6
-28 -31 -62 -56 -74 -53 -81 -58 -178 -105 -110 -53 -132 -63 -160 -68 -14 -3
-38 -10 -55 -15 -83 -29 -134 -35 -287 -39 -130 -3 -168 -7 -172 -18 -3 -8 -8
-49 -11 -92 -4 -43 -13 -113 -21 -157 -8 -43 -14 -118 -14 -167 0 -91 -11
-125 -50 -156 -22 -18 -38 -16 -72 8 l-30 22 5 116 c2 64 7 127 11 141 4 14
11 54 16 90 10 73 26 138 47 191 19 46 14 89 -12 103 -112 63 -292 246 -355
362 -11 21 -25 46 -29 54 -8 14 -16 31 -55 123 -9 21 -16 45 -16 55 0 9 -6 29
-14 44 -8 14 -17 44 -21 65 -8 51 9 69 45 48 14 -8 32 -17 40 -21 25 -12 92
-65 148 -119 96 -89 282 -360 282 -409 0 -23 41 -87 51 -80 5 3 9 21 9 40 0
41 26 153 46 202 8 18 14 41 14 50 0 10 7 27 15 40 12 16 13 26 5 42 -6 11
-16 20 -23 20 -18 0 -199 180 -250 249 -51 68 -60 83 -87 141 -12 25 -26 54
-32 65 -7 11 -15 36 -19 55 -4 19 -12 49 -17 65 -18 52 -35 147 -39 218 -4 55
-1 72 13 88 9 10 21 19 26 19 8 0 38 -29 123 -122 43 -45 135 -163 135 -171 0
-3 15 -28 33 -55 70 -107 125 -237 152 -360 8 -34 17 -67 20 -72 11 -17 35
-11 35 9 0 25 28 119 46 153 8 14 14 33 14 41 0 9 6 28 14 44 62 122 66 134
54 156 -6 12 -29 42 -50 67 -36 42 -50 63 -78 115 -6 11 -19 34 -29 50 -18 28
-43 77 -76 150 -24 54 -38 181 -32 283 3 54 9 105 13 115 11 30 43 19 76 -28
18 -25 35 -45 39 -45 4 0 9 -8 13 -17 3 -10 15 -31 26 -48 11 -16 22 -37 26
-45 3 -8 10 -22 15 -30 5 -8 12 -22 15 -30 3 -8 11 -28 18 -45 21 -48 46 -139
46 -168 0 -15 5 -59 11 -99 6 -40 13 -88 15 -105 5 -33 34 -48 34 -18 0 22
101 224 143 286 19 29 16 47 -19 94 -35 48 -82 140 -104 205 -37 109 -23 348
23 408 15 20 45 14 52 -10 3 -13 10 -32 14 -43 9 -22 33 -83 55 -142 31 -82
49 -200 43 -277 -4 -52 -2 -80 7 -92 11 -14 18 -6 55 67 50 100 56 110 99 168
37 50 39 67 15 101 -73 103 -75 338 -4 424 23 28 36 18 70 -56 30 -65 34 -84
36 -165 0 -51 4 -95 7 -98 3 -3 21 18 41 47 35 54 67 141 67 187 0 56 66 148
171 238 20 17 36 16 43 -3z"/>
<path d="M3505 5571 c-74 -8 -91 -17 -147 -80 -31 -34 -47 -62 -51 -88 -3 -21
-6 -317 -7 -658 0 -341 -2 -687 -4 -770 -1 -82 1 -166 6 -185 12 -43 100 -136
143 -150 16 -5 84 -8 150 -7 119 3 120 3 168 37 87 62 99 114 101 422 1 239
-19 221 259 229 237 6 257 2 257 -52 0 -107 98 -339 183 -435 93 -103 255
-208 352 -225 22 -4 67 -12 100 -19 111 -22 269 4 388 65 100 52 169 107 239
190 34 41 66 75 70 75 10 0 28 -68 28 -105 0 -53 68 -137 140 -175 38 -21 206
-18 250 3 44 22 119 92 131 124 5 13 9 151 9 306 0 157 5 302 11 327 12 53 49
104 89 125 36 18 230 59 239 50 3 -4 8 -181 11 -393 6 -441 4 -430 91 -503 42
-35 58 -42 117 -49 80 -10 193 2 227 24 46 30 105 100 110 130 3 17 6 184 8
371 3 358 5 376 51 414 26 22 91 25 123 6 58 -34 63 -66 63 -415 1 -173 5
-334 9 -358 11 -58 56 -111 122 -145 51 -27 59 -28 156 -24 74 3 109 8 128 21
48 32 104 97 110 129 4 18 5 226 3 462 -4 423 -4 431 -28 495 -56 156 -167
266 -320 320 -54 19 -86 23 -190 24 -116 0 -132 -2 -213 -32 l-89 -31 -50 25
c-47 24 -59 25 -167 22 -114 -3 -117 -4 -163 -37 l-48 -35 -32 18 c-18 10 -53
29 -78 43 -39 21 -54 24 -110 20 -36 -3 -102 -17 -146 -31 l-81 -26 -67 25
c-51 19 -85 25 -149 25 -115 0 -150 -12 -207 -72 -51 -53 -70 -102 -70 -177 0
-26 -5 -41 -12 -41 -7 0 -53 42 -103 93 -133 138 -240 195 -413 221 -259 38
-519 -71 -674 -284 -24 -33 -49 -62 -57 -65 -13 -5 -33 6 -110 62 -21 15 -56
19 -239 23 -213 5 -214 5 -234 30 -17 21 -20 34 -14 89 3 38 12 71 21 80 13
13 58 17 253 22 130 4 250 10 267 14 16 5 55 33 86 64 59 60 69 85 69 186 0
99 -9 124 -69 188 l-57 60 -84 8 c-98 9 -765 9 -855 0z m953 -256 l-3 -140
-355 -1 -355 -1 0 -234 0 -234 45 1 c25 0 164 2 310 4 l265 2 3 -142 3 -142
-316 3 -317 4 4 -348 c2 -191 0 -347 -4 -347 -100 -4 -322 1 -327 7 -3 4 -5
391 -3 858 l2 850 525 0 526 0 -3 -140z m762 -338 c71 -13 179 -57 208 -84 7
-7 17 -13 22 -13 13 0 110 -98 121 -123 5 -12 18 -35 29 -52 11 -16 21 -34 23
-40 2 -5 10 -26 17 -45 23 -64 57 -341 44 -362 -4 -6 -158 -9 -445 -7 -241 2
-442 0 -445 -4 -8 -7 21 -121 37 -147 5 -8 13 -24 18 -35 20 -43 133 -115 181
-115 14 0 39 -4 56 -9 61 -17 169 23 253 94 l53 45 101 0 c56 0 112 3 123 6
65 17 2 -111 -114 -232 -28 -29 -99 -80 -135 -96 -20 -10 -54 -25 -74 -35 -30
-15 -63 -18 -188 -18 -156 0 -161 1 -275 54 -92 42 -208 156 -259 252 -42 81
-88 292 -78 365 19 146 47 236 112 354 32 59 146 160 218 192 84 39 105 46
177 61 80 16 103 16 220 -6z m923 -26 c7 -7 7 -34 0 -81 -11 -86 -2 -107 30
-65 44 59 86 100 119 116 70 34 135 49 209 49 l76 0 0 -149 0 -150 -106 -4
c-145 -5 -215 -36 -268 -120 -48 -76 -56 -153 -49 -442 4 -143 10 -284 13
-312 l6 -53 -164 0 -164 0 2 607 c2 531 4 608 17 613 27 9 268 2 279 -9z m892
-73 c0 -68 3 -83 16 -86 10 -2 19 6 22 20 10 40 69 95 134 127 59 30 67 31
192 31 127 0 162 -7 221 -41 8 -5 24 -13 35 -18 27 -12 99 -89 118 -126 50
-100 56 -172 58 -740 l1 -300 -154 -3 -153 -2 0 407 c0 400 0 409 -22 453 -29
60 -62 89 -125 112 -66 23 -90 23 -158 -1 -68 -24 -131 -84 -155 -148 -22 -59
-30 -279 -15 -428 5 -55 11 -166 13 -248 l4 -147 -164 2 -164 3 1 604 c0 332
2 606 4 610 2 3 69 5 148 4 l143 -2 0 -83z m-1861 -744 c25 -10 19 -43 -10
-54 -33 -13 -100 -13 -125 0 -26 14 -24 39 4 44 12 3 31 7 42 9 32 7 72 7 89
1z"/>
<path d="M5040 4749 c-19 -6 -47 -13 -62 -17 -33 -9 -116 -76 -129 -106 -5
-11 -13 -28 -18 -36 -5 -8 -15 -34 -22 -58 -11 -37 -10 -45 2 -53 8 -4 23 -6
34 -2 11 4 135 7 277 7 141 1 260 4 264 8 6 7 -11 51 -38 98 -4 8 -11 22 -15
30 -13 28 -105 110 -125 110 -11 0 -27 4 -36 9 -29 15 -95 20 -132 10z"/>
</g>
</svg>
